Coordinates
version=1
nRows=17
nColumns=40
inDegrees=yes

Units are S.I. units (second, meters, Newtons, ...)
Angles are in degrees.

endheader
time	pelvis_tilt	pelvis_list	pelvis_rotation	pelvis_tx	pelvis_ty	pelvis_tz	hip_flexion_r	hip_adduction_r	hip_rotation_r	knee_angle_r	knee_angle_r_beta	ankle_angle_r	subtalar_angle_r	mtp_angle_r	hip_flexion_l	hip_adduction_l	hip_rotation_l	knee_angle_l	knee_angle_l_beta	ankle_angle_l	subtalar_angle_l	mtp_angle_l	lumbar_extension	lumbar_bending	lumbar_rotation	arm_flex_r	arm_add_r	arm_rot_r	elbow_flex_r	pro_sup_r	wrist_flex_r	wrist_dev_r	arm_flex_l	arm_add_l	arm_rot_l	elbow_flex_l	pro_sup_l	wrist_flex_l	wrist_dev_l
      0.00000000	     -1.69394178	      5.43372680	      7.90852753	     -1.15788235	      0.96436639	     -1.48333467	     23.74421291	    -17.95483067	    -17.23106127	    -41.36319332	     -0.72192391	      2.75690572	    -11.18761303	     12.46770400	     -2.61336688	     -5.02294120	     16.17042698	     -8.11347301	     -0.14160682	      2.80881763	     -1.01762184	     -7.07267195	     -5.36845211	     -6.23418329	     -1.00294774	      5.87482858	     -9.41369461	    -16.15071205	     19.46334425	     89.95437384	      0.00000000	      0.00000000	     10.61452871	     16.19726744	      0.46105938	     29.37869052	     89.95437384	      0.00000000	      0.00000000
      0.01000000	     -1.92594352	      5.25535672	      7.85136906	     -1.15066363	      0.96364686	     -1.48394703	     24.36550646	    -17.36863710	    -17.03701073	    -38.98672284	     -0.68044668	      2.65891640	    -10.36688837	     12.37390707	     -2.77441357	     -4.85646604	     16.18373258	     -8.18632231	     -0.14287828	      3.05373294	     -0.95503546	     -7.06372627	     -5.11641591	     -6.10443452	     -1.29020021	      5.59494943	     -9.40943600	    -16.37738397	     19.17945818	     89.95437384	      0.00000000	      0.00000000	     11.22793249	     16.69691156	      0.34645996	     29.97382200	     89.95437384	      0.00000000	      0.00000000
      0.02000000	     -2.24010609	      5.38002698	      7.78384864	     -1.14322688	      0.96265579	     -1.48488051	     25.09047317	    -17.27840862	    -17.13331063	    -36.75529333	     -0.64150089	      2.83005524	     -9.84812262	     12.28372037	     -2.91104191	     -5.06402710	     16.40586289	     -8.23068154	     -0.14365249	      3.33309870	     -0.89041456	     -7.07521538	     -4.74008917	     -6.29829757	     -1.56521191	      5.12367074	     -9.44169326	    -16.43991695	     19.11965263	     89.95437384	      0.00000000	      0.00000000	     11.80765224	     17.15421514	      0.38221324	     30.44844674	     89.95437384	      0.00000000	      0.00000000
      0.03000000	     -1.84754780	      4.67407996	      7.73404002	     -1.13560394	      0.96290723	     -1.48480073	     24.53301554	    -15.92392645	    -17.23319325	    -33.54073949	     -0.58539634	      2.47415767	     -8.43994088	     12.11453831	     -3.62123380	     -4.13940890	     16.48244608	     -8.45897208	     -0.14763691	      3.70335793	     -0.86306987	     -7.32072486	     -5.14709645	     -5.50630697	     -1.75864189	      4.93942608	     -9.42319990	    -17.43715653	     18.82737433	     89.95437384	      0.00000000	      0.00000000	     12.50839754	     17.55819300	      0.23770361	     30.95037853	     89.95437384	      0.00000000	      0.00000000
      0.04000000	     -1.90028081	      4.41504295	      7.59488701	     -1.12800401	      0.96218504	     -1.48494849	     24.70278705	    -15.23218981	    -17.24333583	    -30.75501260	     -0.53677623	      2.28989475	     -7.22599008	     11.84992446	     -3.92919539	     -3.81807476	     16.70159611	     -8.65870547	     -0.15112292	      4.00788038	     -0.86503372	     -7.59699168	     -5.04030263	     -5.24572100	     -1.89690619	      4.62388548	     -9.45843154	    -17.77332721	     18.66677822	     89.95437384	      0.00000000	      0.00000000	     13.06411838	     17.96027546	      0.34202144	     31.40701914	     89.95437384	      0.00000000	      0.00000000
      0.05000000	     -1.94725910	      4.17253649	      7.46988887	     -1.12021681	      0.96140061	     -1.48499243	     24.77399156	    -14.55915890	    -17.25695231	    -27.87054309	     -0.48643274	      2.09779148	     -5.70616190	     11.62118931	     -4.25393915	     -3.49869757	     16.86448209	     -8.87669876	     -0.15492762	      4.38554276	     -0.74704932	     -7.92469971	     -4.94792709	     -5.01977641	     -1.99040301	      4.36143420	     -9.49300001	    -18.12011745	     18.30436360	     89.95437384	      0.00000000	      0.00000000	     13.61344609	     18.32621263	      0.45548105	     31.84410525	     89.95437384	      0.00000000	      0.00000000
      0.06000000	     -2.06312338	      3.99416999	      7.28759590	     -1.11241450	      0.96031479	     -1.48499401	     24.99935158	    -14.00959936	    -17.42092696	    -25.16721605	     -0.43925078	      1.70310107	     -4.14356066	     11.39279725	     -4.57504814	     -3.29412164	     16.98293850	     -8.99315828	     -0.15696022	      4.71968206	     -0.66920476	     -8.18373634	     -4.74866939	     -4.84446852	     -2.04204504	      3.91442389	     -9.57576943	    -18.26992613	     18.30367052	     89.95437384	      0.00000000	      0.00000000	     14.06911155	     18.70770256	      0.51554468	     32.23512515	     89.95437384	      0.00000000	      0.00000000
      0.07000000	     -2.05702494	      3.76728390	      7.17491777	     -1.10443790	      0.95927954	     -1.48501778	     25.01181038	    -13.42073950	    -17.70917819	    -22.44769247	     -0.39178614	      1.24802033	     -2.33525545	     10.99801493	     -5.06203882	     -3.00896566	     17.02466631	     -9.07559072	     -0.15839894	      5.10921534	     -0.51909749	     -8.57054026	     -4.72810719	     -4.58901902	     -2.11254573	      3.55474129	     -9.71148995	    -18.34965920	     18.13755427	     89.95437384	      0.00000000	      0.00000000	     14.59677325	     18.94748476	      0.85889419	     32.61338546	     89.95437384	      0.00000000	      0.00000000
      0.08000000	     -2.17293707	      3.59556408	      7.00436979	     -1.09645838	      0.95796952	     -1.48487349	     25.20711565	    -12.90344998	    -17.97217014	    -19.87138430	     -0.34682108	      0.65301737	     -0.37483620	     10.62037476	     -5.43983105	     -2.79106917	     17.07706293	     -9.14598871	     -0.15962762	      5.44180948	     -0.45563105	     -8.91704511	     -4.53362814	     -4.41359043	     -2.17012878	      3.21060991	     -9.75029647	    -18.76018813	     17.99499896	     89.95437384	      0.00000000	      0.00000000	     15.02106903	     19.21516564	      1.21119254	     32.88719267	     89.95437384	      0.00000000	      0.00000000
      0.09000000	     -2.18586888	      3.41401669	      6.91494404	     -1.08839290	      0.95671210	     -1.48481940	     25.19679450	    -12.43794394	    -18.49556524	    -17.32807422	     -0.30243195	      0.20420974	      2.01170454	      9.87517073	     -5.95246197	     -2.52019851	     17.07918546	     -9.19109678	     -0.16041490	      5.68867257	     -0.61551754	     -9.42999759	     -4.49010320	     -4.17937288	     -2.28179344	      2.86977215	     -9.88410014	    -18.90089383	     17.90133113	     89.95437384	      0.00000000	      0.00000000	     15.42086381	     19.41654397	      1.65853516	     33.18114899	     89.95437384	      0.00000000	      0.00000000
      0.10000000	     -2.54515123	      3.50649235	      6.71646927	     -1.08068250	      0.95480859	     -1.48468678	     25.72547424	    -12.21419472	    -18.45545847	    -15.06733916	     -0.26297468	     -0.23560113	      3.51916201	      9.80349790	     -6.12355403	     -2.63094182	     17.12670001	     -9.19717834	     -0.16052104	      5.92084513	     -0.67323986	     -9.60480520	     -4.11059907	     -4.30170189	     -2.23944558	      2.51867797	     -9.97827690	    -19.03520681	     17.75027997	     89.95437384	      0.00000000	      0.00000000	     15.79121167	     19.66715505	      1.90006910	     33.46952363	     89.95437384	      0.00000000	      0.00000000
      0.11000000	     -2.30189850	      3.13912083	      6.77003660	     -1.07192815	      0.95370570	     -1.48461577	     25.24809926	    -11.68581068	    -20.02899975	    -12.56853653	     -0.21936234	     -2.46717574	      6.10569375	     -1.72519900	     -6.86152339	     -1.95102853	     17.89447740	     -9.35663304	     -0.16330405	      5.22525195	     -1.74012590	    -13.80067653	     -4.29606334	     -3.80855721	     -2.41997024	      2.22586124	    -10.11221535	    -19.47031212	     17.53191749	     89.95437384	      0.00000000	      0.00000000	     16.17298649	     19.68233813	      2.60576809	     33.58644941	     89.95437384	      0.00000000	      0.00000000
      0.12000000	     -2.49298701	      3.16275762	      6.63102513	     -1.06381694	      0.95186148	     -1.48436748	     25.55060048	    -11.49188403	    -20.67978000	    -10.80468492	     -0.18857733	     -2.59254102	      7.53155343	     -1.79261913	     -7.22552861	     -1.92226601	     18.11153799	     -9.39654688	     -0.16400068	      5.60115754	     -1.78038849	    -13.88246299	     -4.09434377	     -3.81456193	     -2.39999468	      1.90710559	    -10.25343174	    -19.69783094	     17.38214936	     89.95437384	      0.00000000	      0.00000000	     16.46997801	     19.83165810	      2.97578529	     33.79008899	     89.95437384	      0.00000000	      0.00000000
      0.13000000	     -2.53755646	      3.11413435	      6.61387654	     -1.05548469	      0.95017459	     -1.48412485	     25.74767314	    -11.34493368	    -21.93074418	     -9.64699032	     -0.16837174	     -2.47146639	      8.97916016	     -2.05646937	     -7.72258228	     -1.74080713	     18.29291025	     -9.48016019	     -0.16546001	      5.73600591	     -2.34940695	    -13.98467502	     -4.05838598	     -3.70068545	     -2.51409698	      1.66477869	    -10.36151644	    -20.01713687	     17.14704718	     89.95437384	      0.00000000	      0.00000000	     16.72026657	     19.90142870	      3.54198264	     33.95752121	     89.95437384	      0.00000000	      0.00000000
      0.14000000	     -2.73629520	      3.30576208	      6.50967043	     -1.04716976	      0.94807212	     -1.48362884	     26.35030057	    -11.42949898	    -22.47951023	     -9.30328862	     -0.16237302	     -2.26010211	      8.86769200	     -2.08476430	     -8.12481227	     -1.87010228	     18.47293817	     -9.48142502	     -0.16548208	      5.94835510	     -2.42245595	    -13.97617274	     -3.86253880	     -3.90188990	     -2.45031193	      1.36420958	    -10.48279002	    -19.99158876	     16.93982723	     89.95437384	      0.00000000	      0.00000000	     16.97732855	     20.09008605	      3.70795020	     34.13480471	     89.95437384	      0.00000000	      0.00000000
      0.15000000	     -2.79426822	      3.43533841	      6.58255602	     -1.03849045	      0.94615336	     -1.48345440	     27.00669899	    -11.82284206	    -24.03834328	    -10.08769142	     -0.17606343	     -2.17603740	     10.11951874	     -2.70727113	     -8.61716566	     -1.79538656	     18.92479413	     -9.62985090	     -0.16807260	      6.02657740	     -3.66626680	    -14.14543807	     -3.82201898	     -3.97398539	     -2.66512565	      1.20439958	    -10.56093490	    -20.58702534	     16.60492603	     89.95437384	      0.00000000	      0.00000000	     17.05378343	     20.13707179	      4.41689371	     34.33900602	     89.95437384	      0.00000000	      0.00000000
      0.16000000	     -2.86962236	      3.54951863	      6.62258623	     -1.02974596	      0.94418705	     -1.48313554	     27.63859625	    -12.04610441	    -24.31630897	    -11.02919249	     -0.19249572	     -2.47079942	      9.28337772	     -2.70419091	     -9.10705081	     -1.77871022	     18.90913016	     -9.74412810	     -0.17006712	      6.30656732	     -3.84341563	    -14.04888619	     -3.73982056	     -4.03314033	     -2.75567675	      0.96422932	    -10.74631460	    -20.50958093	     16.30345759	     89.95437384	      0.00000000	      0.00000000	     17.11561315	     20.18154472	      4.80373788	     34.51857511	     89.95437384	      0.00000000	      0.00000000
